<?xml version="1.0" encoding="UTF-8" standalone="no"?>
<!-- Created with Inkscape (http://www.inkscape.org/) -->
<svg id="svg2" xmlns:rdf="http://www.w3.org/1999/02/22-rdf-syntax-ns#" xmlns="http://www.w3.org/2000/svg" height="106.46mm" width="172.05mm" version="1.1" xmlns:cc="http://creativecommons.org/ns#" xmlns:dc="http://purl.org/dc/elements/1.1/" viewBox="0 0 609.64173 377.21698">
 <defs id="defs4">
  <marker id="marker4644" refY="0" refX="0" orient="auto" overflow="visible">
   <path id="path4646" d="m0 0 5-5-17.5 5 17.5 5-5-5z" fill-rule="evenodd" transform="matrix(-.8 0 0 -.8 -10 0)" stroke="#000" stroke-width="1pt"/>
  </marker>
 </defs>
 <metadata id="metadata7">
  <rdf:RDF>
   <cc:Work rdf:about="">
    <dc:format>image/svg+xml</dc:format>
    <dc:type rdf:resource="http://purl.org/dc/dcmitype/StillImage"/>
    <dc:title/>
   </cc:Work>
  </rdf:RDF>
 </metadata>
 <g id="layer1" transform="translate(159.68 -256.53)">
  <rect id="rect6553" style="color-rendering:auto;color:#000000;isolation:auto;mix-blend-mode:normal;shape-rendering:auto;solid-color:#000000;image-rendering:auto" fill-rule="evenodd" height="460.71" width="797.14" y="191.96" x="-216.82" fill="#fff"/>
  <path id="path4544-2" d="m95.965 178.6v14.123 415.19h-450.53" stroke="#000" stroke-width="1.5" fill="none"/>
  <g id="g5988" stroke="#0200ab" stroke-dasharray="2.29999995, 2.29999995" stroke-width="2.3" fill="none">
   <path id="path5971" d="m96.071 282.36c-6.4286 0-5.7143 11.429-6.7857 21.071-1.0714 9.6429-5 40.714-6.7857 53.929-1.7857 13.214-4.6429 43.214-5.7143 50-1.0714 6.7857-4.6429 35-5.7143 42.5s-3.2143 17.5-6.4286 33.214-7.8571 42.143-13.571 42.143c-5.7143 0-8.9286-16.786-13.214-31.786-4.2857-15-15-35-17.857-38.214-2.8571-3.2143-3.2143-5.3572-9.6429-5.3572s-11.786 7.8572-14.286 15.714c-2.5 7.8571-7.8571 32.143-8.5714 35.714-0.71429 3.5714-5.3571 19.286-7.5 27.857-2.1429 8.5714-8.9286 24.643-15.714 31.071-6.7857 6.4286-22.857 23.571-35.357 28.571s-57.5 8.2143-64.286 8.2143c-6.7857 0-193.57 3.5714-193.57 3.5714l-0.35714-0.71429"/>
   <path id="path5971-6" d="m95.664 281.82c6.4286 0 5.7143 11.429 6.7857 21.071 1.0714 9.6429 5 40.714 6.7857 53.929 1.7857 13.214 4.6428 43.214 5.7143 50 1.0714 6.7857 4.6429 35 5.7143 42.5s3.2143 17.5 6.4286 33.214 7.8571 42.143 13.571 42.143c5.7143 0 8.9286-16.786 13.214-31.786 4.2857-15 15-35 17.857-38.214 2.8571-3.2143 3.2143-5.3572 9.6428-5.3572 6.4286 0 11.786 7.8572 14.286 15.714 2.5 7.8571 7.8571 32.143 8.5714 35.714 0.71428 3.5714 5.3571 19.286 7.5 27.857 2.1428 8.5714 8.9286 24.643 15.714 31.071 6.7857 6.4286 22.857 23.571 35.357 28.571s57.5 8.2143 64.286 8.2143c6.7857 0 193.57 3.5714 193.57 3.5714l0.35714-0.71429"/>
  </g>
  <text id="text6028" style="word-spacing:0px;letter-spacing:0px" xml:space="preserve" font-size="12.5px" line-height="100%" y="630.11841" x="320.21832" font-family="Arial" fill="#000000"><tspan id="tspan6030" font-size="17.5px" y="630.11841" x="320.21832">Time lag fs]</tspan></text>
  <rect id="rect6406" style="color-rendering:auto;color:#000000;isolation:auto;mix-blend-mode:normal;shape-rendering:auto;solid-color:#000000;image-rendering:auto" fill-rule="evenodd" height="17.857" width="157.14" y="587.36" x="377.86" fill="#fff"/>
  <path id="path4544" marker-end="url(#marker4644)" d="m95.924 178.58v429.31h333.35" stroke="#000" stroke-width="1.5" fill="none"/>
 </g>
</svg>
